<mxfile host="app.diagrams.net" modified="2023-08-01T19:25:48.745Z" agent="Mozilla/5.0 (Windows NT 10.0; Win64; x64) AppleWebKit/537.36 (KHTML, like Gecko) Chrome/114.0.0.0 Safari/537.36" etag="NjAwPIDau9er7YywYC3I" version="21.6.6" type="github">
  <diagram id="C5RBs43oDa-KdzZeNtuy" name="Page-1">
    <mxGraphModel dx="1434" dy="796" grid="1" gridSize="10" guides="1" tooltips="1" connect="1" arrows="1" fold="1" page="1" pageScale="1" pageWidth="827" pageHeight="1169" math="0" shadow="0">
      <root>
        <mxCell id="WIyWlLk6GJQsqaUBKTNV-0" />
        <mxCell id="WIyWlLk6GJQsqaUBKTNV-1" parent="WIyWlLk6GJQsqaUBKTNV-0" />
        <mxCell id="Te2GtE4PRlwuVwuaiyJ8-100" style="edgeStyle=orthogonalEdgeStyle;rounded=0;orthogonalLoop=1;jettySize=auto;html=1;" edge="1" parent="WIyWlLk6GJQsqaUBKTNV-1" source="Te2GtE4PRlwuVwuaiyJ8-0">
          <mxGeometry relative="1" as="geometry">
            <mxPoint x="240" y="154.5" as="targetPoint" />
          </mxGeometry>
        </mxCell>
        <mxCell id="Te2GtE4PRlwuVwuaiyJ8-0" value="" style="ellipse;whiteSpace=wrap;html=1;" vertex="1" parent="WIyWlLk6GJQsqaUBKTNV-1">
          <mxGeometry x="80" y="137" width="30" height="35" as="geometry" />
        </mxCell>
        <mxCell id="Te2GtE4PRlwuVwuaiyJ8-4" value="" style="edgeStyle=orthogonalEdgeStyle;rounded=0;orthogonalLoop=1;jettySize=auto;html=1;" edge="1" parent="WIyWlLk6GJQsqaUBKTNV-1" source="Te2GtE4PRlwuVwuaiyJ8-1" target="Te2GtE4PRlwuVwuaiyJ8-3">
          <mxGeometry relative="1" as="geometry" />
        </mxCell>
        <mxCell id="Te2GtE4PRlwuVwuaiyJ8-1" value="ABRIR APP&lt;br&gt;" style="whiteSpace=wrap;html=1;" vertex="1" parent="WIyWlLk6GJQsqaUBKTNV-1">
          <mxGeometry x="240" y="120" width="130" height="60" as="geometry" />
        </mxCell>
        <mxCell id="Te2GtE4PRlwuVwuaiyJ8-8" value="" style="edgeStyle=orthogonalEdgeStyle;rounded=0;orthogonalLoop=1;jettySize=auto;html=1;entryX=1;entryY=0.5;entryDx=0;entryDy=0;" edge="1" parent="WIyWlLk6GJQsqaUBKTNV-1" source="Te2GtE4PRlwuVwuaiyJ8-3" target="Te2GtE4PRlwuVwuaiyJ8-51">
          <mxGeometry relative="1" as="geometry">
            <mxPoint x="500" y="220" as="targetPoint" />
            <Array as="points">
              <mxPoint x="565" y="200" />
              <mxPoint x="565" y="200" />
            </Array>
          </mxGeometry>
        </mxCell>
        <mxCell id="Te2GtE4PRlwuVwuaiyJ8-3" value="INICIAR SESION" style="whiteSpace=wrap;html=1;" vertex="1" parent="WIyWlLk6GJQsqaUBKTNV-1">
          <mxGeometry x="510" y="120" width="120" height="60" as="geometry" />
        </mxCell>
        <mxCell id="Te2GtE4PRlwuVwuaiyJ8-22" value="" style="ellipse;whiteSpace=wrap;html=1;" vertex="1" parent="WIyWlLk6GJQsqaUBKTNV-1">
          <mxGeometry x="700" y="582.5" width="30" height="30" as="geometry" />
        </mxCell>
        <mxCell id="Te2GtE4PRlwuVwuaiyJ8-24" value="INICIO" style="text;html=1;strokeColor=none;fillColor=none;align=center;verticalAlign=middle;whiteSpace=wrap;rounded=0;" vertex="1" parent="WIyWlLk6GJQsqaUBKTNV-1">
          <mxGeometry x="70" y="169" width="60" height="30" as="geometry" />
        </mxCell>
        <mxCell id="Te2GtE4PRlwuVwuaiyJ8-50" value="FIN" style="text;html=1;strokeColor=none;fillColor=none;align=center;verticalAlign=middle;whiteSpace=wrap;rounded=0;" vertex="1" parent="WIyWlLk6GJQsqaUBKTNV-1">
          <mxGeometry x="700" y="619" width="60" height="24" as="geometry" />
        </mxCell>
        <mxCell id="Te2GtE4PRlwuVwuaiyJ8-53" value="" style="edgeStyle=orthogonalEdgeStyle;rounded=0;orthogonalLoop=1;jettySize=auto;html=1;" edge="1" parent="WIyWlLk6GJQsqaUBKTNV-1" source="Te2GtE4PRlwuVwuaiyJ8-51" target="Te2GtE4PRlwuVwuaiyJ8-52">
          <mxGeometry relative="1" as="geometry" />
        </mxCell>
        <mxCell id="Te2GtE4PRlwuVwuaiyJ8-56" value="SI" style="edgeLabel;html=1;align=center;verticalAlign=middle;resizable=0;points=[];" vertex="1" connectable="0" parent="Te2GtE4PRlwuVwuaiyJ8-53">
          <mxGeometry x="0.04" y="-3" relative="1" as="geometry">
            <mxPoint as="offset" />
          </mxGeometry>
        </mxCell>
        <mxCell id="Te2GtE4PRlwuVwuaiyJ8-57" style="edgeStyle=orthogonalEdgeStyle;rounded=0;orthogonalLoop=1;jettySize=auto;html=1;exitX=0.5;exitY=1;exitDx=0;exitDy=0;entryX=1;entryY=0.5;entryDx=0;entryDy=0;" edge="1" parent="WIyWlLk6GJQsqaUBKTNV-1" source="Te2GtE4PRlwuVwuaiyJ8-51" target="Te2GtE4PRlwuVwuaiyJ8-3">
          <mxGeometry relative="1" as="geometry" />
        </mxCell>
        <mxCell id="Te2GtE4PRlwuVwuaiyJ8-58" value="NO" style="edgeLabel;html=1;align=center;verticalAlign=middle;resizable=0;points=[];" vertex="1" connectable="0" parent="Te2GtE4PRlwuVwuaiyJ8-57">
          <mxGeometry x="-0.4286" y="-1" relative="1" as="geometry">
            <mxPoint as="offset" />
          </mxGeometry>
        </mxCell>
        <mxCell id="Te2GtE4PRlwuVwuaiyJ8-51" value="HOME" style="rhombus;whiteSpace=wrap;html=1;" vertex="1" parent="WIyWlLk6GJQsqaUBKTNV-1">
          <mxGeometry x="455" y="260" width="110" height="110" as="geometry" />
        </mxCell>
        <mxCell id="Te2GtE4PRlwuVwuaiyJ8-54" style="edgeStyle=orthogonalEdgeStyle;rounded=0;orthogonalLoop=1;jettySize=auto;html=1;exitX=0.5;exitY=0;exitDx=0;exitDy=0;entryX=0.5;entryY=0;entryDx=0;entryDy=0;" edge="1" parent="WIyWlLk6GJQsqaUBKTNV-1" source="Te2GtE4PRlwuVwuaiyJ8-52" target="Te2GtE4PRlwuVwuaiyJ8-51">
          <mxGeometry relative="1" as="geometry" />
        </mxCell>
        <mxCell id="Te2GtE4PRlwuVwuaiyJ8-55" value="NO" style="edgeLabel;html=1;align=center;verticalAlign=middle;resizable=0;points=[];" vertex="1" connectable="0" parent="Te2GtE4PRlwuVwuaiyJ8-54">
          <mxGeometry x="-0.2549" relative="1" as="geometry">
            <mxPoint as="offset" />
          </mxGeometry>
        </mxCell>
        <mxCell id="Te2GtE4PRlwuVwuaiyJ8-61" value="" style="edgeStyle=orthogonalEdgeStyle;rounded=0;orthogonalLoop=1;jettySize=auto;html=1;" edge="1" parent="WIyWlLk6GJQsqaUBKTNV-1" source="Te2GtE4PRlwuVwuaiyJ8-52" target="Te2GtE4PRlwuVwuaiyJ8-60">
          <mxGeometry relative="1" as="geometry" />
        </mxCell>
        <mxCell id="Te2GtE4PRlwuVwuaiyJ8-86" value="" style="edgeStyle=orthogonalEdgeStyle;rounded=0;orthogonalLoop=1;jettySize=auto;html=1;" edge="1" parent="WIyWlLk6GJQsqaUBKTNV-1" source="Te2GtE4PRlwuVwuaiyJ8-52" target="Te2GtE4PRlwuVwuaiyJ8-85">
          <mxGeometry relative="1" as="geometry" />
        </mxCell>
        <mxCell id="Te2GtE4PRlwuVwuaiyJ8-52" value="LLAMADA DE VOZ" style="whiteSpace=wrap;html=1;" vertex="1" parent="WIyWlLk6GJQsqaUBKTNV-1">
          <mxGeometry x="260" y="285" width="120" height="60" as="geometry" />
        </mxCell>
        <mxCell id="Te2GtE4PRlwuVwuaiyJ8-63" value="" style="edgeStyle=orthogonalEdgeStyle;rounded=0;orthogonalLoop=1;jettySize=auto;html=1;" edge="1" parent="WIyWlLk6GJQsqaUBKTNV-1" source="Te2GtE4PRlwuVwuaiyJ8-60" target="Te2GtE4PRlwuVwuaiyJ8-62">
          <mxGeometry relative="1" as="geometry" />
        </mxCell>
        <mxCell id="Te2GtE4PRlwuVwuaiyJ8-72" value="SI" style="edgeLabel;html=1;align=center;verticalAlign=middle;resizable=0;points=[];" vertex="1" connectable="0" parent="Te2GtE4PRlwuVwuaiyJ8-63">
          <mxGeometry x="-0.1795" y="-1" relative="1" as="geometry">
            <mxPoint as="offset" />
          </mxGeometry>
        </mxCell>
        <mxCell id="Te2GtE4PRlwuVwuaiyJ8-60" value="&lt;font style=&quot;font-size: 9px;&quot;&gt;MARCAR AL LLAMADA&lt;/font&gt;" style="rhombus;whiteSpace=wrap;html=1;" vertex="1" parent="WIyWlLk6GJQsqaUBKTNV-1">
          <mxGeometry x="60" y="260" width="100" height="95" as="geometry" />
        </mxCell>
        <mxCell id="Te2GtE4PRlwuVwuaiyJ8-65" value="" style="edgeStyle=orthogonalEdgeStyle;rounded=0;orthogonalLoop=1;jettySize=auto;html=1;" edge="1" parent="WIyWlLk6GJQsqaUBKTNV-1" source="Te2GtE4PRlwuVwuaiyJ8-62" target="Te2GtE4PRlwuVwuaiyJ8-64">
          <mxGeometry relative="1" as="geometry" />
        </mxCell>
        <mxCell id="Te2GtE4PRlwuVwuaiyJ8-71" value="SI" style="edgeLabel;html=1;align=center;verticalAlign=middle;resizable=0;points=[];" vertex="1" connectable="0" parent="Te2GtE4PRlwuVwuaiyJ8-65">
          <mxGeometry x="-0.0429" y="1" relative="1" as="geometry">
            <mxPoint y="1" as="offset" />
          </mxGeometry>
        </mxCell>
        <mxCell id="Te2GtE4PRlwuVwuaiyJ8-62" value="ERES UNA PERSONA CON DISCAPACIDAD" style="whiteSpace=wrap;html=1;" vertex="1" parent="WIyWlLk6GJQsqaUBKTNV-1">
          <mxGeometry x="50" y="452.5" width="120" height="60" as="geometry" />
        </mxCell>
        <mxCell id="Te2GtE4PRlwuVwuaiyJ8-78" value="" style="edgeStyle=orthogonalEdgeStyle;rounded=0;orthogonalLoop=1;jettySize=auto;html=1;" edge="1" parent="WIyWlLk6GJQsqaUBKTNV-1" source="Te2GtE4PRlwuVwuaiyJ8-64" target="Te2GtE4PRlwuVwuaiyJ8-77">
          <mxGeometry relative="1" as="geometry" />
        </mxCell>
        <mxCell id="Te2GtE4PRlwuVwuaiyJ8-64" value="&lt;font style=&quot;font-size: 10px;&quot;&gt;APOYO CON OYENTE&amp;nbsp;&lt;/font&gt;" style="rhombus;whiteSpace=wrap;html=1;" vertex="1" parent="WIyWlLk6GJQsqaUBKTNV-1">
          <mxGeometry x="70" y="582.5" width="80" height="80" as="geometry" />
        </mxCell>
        <mxCell id="Te2GtE4PRlwuVwuaiyJ8-67" value="" style="endArrow=classic;html=1;rounded=0;entryX=0.13;entryY=0.621;entryDx=0;entryDy=0;entryPerimeter=0;" edge="1" parent="WIyWlLk6GJQsqaUBKTNV-1" target="Te2GtE4PRlwuVwuaiyJ8-60">
          <mxGeometry width="50" height="50" relative="1" as="geometry">
            <mxPoint x="30" y="320" as="sourcePoint" />
            <mxPoint x="80" y="270" as="targetPoint" />
          </mxGeometry>
        </mxCell>
        <mxCell id="Te2GtE4PRlwuVwuaiyJ8-68" value="" style="endArrow=none;html=1;rounded=0;" edge="1" parent="WIyWlLk6GJQsqaUBKTNV-1">
          <mxGeometry width="50" height="50" relative="1" as="geometry">
            <mxPoint x="30" y="620" as="sourcePoint" />
            <mxPoint x="70" y="620" as="targetPoint" />
          </mxGeometry>
        </mxCell>
        <mxCell id="Te2GtE4PRlwuVwuaiyJ8-69" value="" style="endArrow=none;html=1;rounded=0;" edge="1" parent="WIyWlLk6GJQsqaUBKTNV-1">
          <mxGeometry width="50" height="50" relative="1" as="geometry">
            <mxPoint x="30" y="620" as="sourcePoint" />
            <mxPoint x="30" y="320" as="targetPoint" />
          </mxGeometry>
        </mxCell>
        <mxCell id="Te2GtE4PRlwuVwuaiyJ8-70" value="NO" style="edgeLabel;html=1;align=center;verticalAlign=middle;resizable=0;points=[];" vertex="1" connectable="0" parent="Te2GtE4PRlwuVwuaiyJ8-69">
          <mxGeometry x="-0.66" y="3" relative="1" as="geometry">
            <mxPoint as="offset" />
          </mxGeometry>
        </mxCell>
        <mxCell id="Te2GtE4PRlwuVwuaiyJ8-73" value="" style="endArrow=none;html=1;rounded=0;" edge="1" parent="WIyWlLk6GJQsqaUBKTNV-1">
          <mxGeometry width="50" height="50" relative="1" as="geometry">
            <mxPoint x="110" y="260" as="sourcePoint" />
            <mxPoint x="110" y="240" as="targetPoint" />
          </mxGeometry>
        </mxCell>
        <mxCell id="Te2GtE4PRlwuVwuaiyJ8-74" value="" style="endArrow=none;html=1;rounded=0;" edge="1" parent="WIyWlLk6GJQsqaUBKTNV-1">
          <mxGeometry width="50" height="50" relative="1" as="geometry">
            <mxPoint x="110" y="240" as="sourcePoint" />
            <mxPoint x="290" y="240" as="targetPoint" />
          </mxGeometry>
        </mxCell>
        <mxCell id="Te2GtE4PRlwuVwuaiyJ8-76" value="NO" style="edgeLabel;html=1;align=center;verticalAlign=middle;resizable=0;points=[];" vertex="1" connectable="0" parent="Te2GtE4PRlwuVwuaiyJ8-74">
          <mxGeometry x="0.0889" relative="1" as="geometry">
            <mxPoint as="offset" />
          </mxGeometry>
        </mxCell>
        <mxCell id="Te2GtE4PRlwuVwuaiyJ8-75" value="" style="endArrow=classic;html=1;rounded=0;entryX=0.25;entryY=0;entryDx=0;entryDy=0;" edge="1" parent="WIyWlLk6GJQsqaUBKTNV-1" target="Te2GtE4PRlwuVwuaiyJ8-52">
          <mxGeometry width="50" height="50" relative="1" as="geometry">
            <mxPoint x="288" y="240" as="sourcePoint" />
            <mxPoint x="338" y="190" as="targetPoint" />
          </mxGeometry>
        </mxCell>
        <mxCell id="Te2GtE4PRlwuVwuaiyJ8-94" style="edgeStyle=orthogonalEdgeStyle;rounded=0;orthogonalLoop=1;jettySize=auto;html=1;entryX=0;entryY=0.5;entryDx=0;entryDy=0;" edge="1" parent="WIyWlLk6GJQsqaUBKTNV-1" source="Te2GtE4PRlwuVwuaiyJ8-77" target="Te2GtE4PRlwuVwuaiyJ8-92">
          <mxGeometry relative="1" as="geometry" />
        </mxCell>
        <mxCell id="Te2GtE4PRlwuVwuaiyJ8-77" value="COMUNICAR CON EL AGENTE" style="whiteSpace=wrap;html=1;" vertex="1" parent="WIyWlLk6GJQsqaUBKTNV-1">
          <mxGeometry x="210" y="592.5" width="120" height="60" as="geometry" />
        </mxCell>
        <mxCell id="Te2GtE4PRlwuVwuaiyJ8-80" value="" style="endArrow=none;html=1;rounded=0;" edge="1" parent="WIyWlLk6GJQsqaUBKTNV-1">
          <mxGeometry width="50" height="50" relative="1" as="geometry">
            <mxPoint x="170" y="490" as="sourcePoint" />
            <mxPoint x="220" y="490" as="targetPoint" />
          </mxGeometry>
        </mxCell>
        <mxCell id="Te2GtE4PRlwuVwuaiyJ8-81" value="" style="endArrow=none;html=1;rounded=0;" edge="1" parent="WIyWlLk6GJQsqaUBKTNV-1">
          <mxGeometry width="50" height="50" relative="1" as="geometry">
            <mxPoint x="220" y="490" as="sourcePoint" />
            <mxPoint x="220" y="340" as="targetPoint" />
          </mxGeometry>
        </mxCell>
        <mxCell id="Te2GtE4PRlwuVwuaiyJ8-84" value="NO" style="edgeLabel;html=1;align=center;verticalAlign=middle;resizable=0;points=[];" vertex="1" connectable="0" parent="Te2GtE4PRlwuVwuaiyJ8-81">
          <mxGeometry x="0.0133" y="1" relative="1" as="geometry">
            <mxPoint as="offset" />
          </mxGeometry>
        </mxCell>
        <mxCell id="Te2GtE4PRlwuVwuaiyJ8-83" value="" style="endArrow=classic;html=1;rounded=0;" edge="1" parent="WIyWlLk6GJQsqaUBKTNV-1">
          <mxGeometry width="50" height="50" relative="1" as="geometry">
            <mxPoint x="220" y="340" as="sourcePoint" />
            <mxPoint x="130" y="340" as="targetPoint" />
          </mxGeometry>
        </mxCell>
        <mxCell id="Te2GtE4PRlwuVwuaiyJ8-88" value="" style="edgeStyle=orthogonalEdgeStyle;rounded=0;orthogonalLoop=1;jettySize=auto;html=1;" edge="1" parent="WIyWlLk6GJQsqaUBKTNV-1" source="Te2GtE4PRlwuVwuaiyJ8-85" target="Te2GtE4PRlwuVwuaiyJ8-87">
          <mxGeometry relative="1" as="geometry" />
        </mxCell>
        <mxCell id="Te2GtE4PRlwuVwuaiyJ8-91" value="SI" style="edgeLabel;html=1;align=center;verticalAlign=middle;resizable=0;points=[];" vertex="1" connectable="0" parent="Te2GtE4PRlwuVwuaiyJ8-88">
          <mxGeometry x="-0.2889" y="-1" relative="1" as="geometry">
            <mxPoint as="offset" />
          </mxGeometry>
        </mxCell>
        <mxCell id="Te2GtE4PRlwuVwuaiyJ8-89" style="edgeStyle=orthogonalEdgeStyle;rounded=0;orthogonalLoop=1;jettySize=auto;html=1;exitX=0;exitY=0.5;exitDx=0;exitDy=0;entryX=0.1;entryY=0.983;entryDx=0;entryDy=0;entryPerimeter=0;" edge="1" parent="WIyWlLk6GJQsqaUBKTNV-1" source="Te2GtE4PRlwuVwuaiyJ8-85" target="Te2GtE4PRlwuVwuaiyJ8-52">
          <mxGeometry relative="1" as="geometry" />
        </mxCell>
        <mxCell id="Te2GtE4PRlwuVwuaiyJ8-90" value="NO&lt;br&gt;" style="edgeLabel;html=1;align=center;verticalAlign=middle;resizable=0;points=[];" vertex="1" connectable="0" parent="Te2GtE4PRlwuVwuaiyJ8-89">
          <mxGeometry x="0.0488" y="-1" relative="1" as="geometry">
            <mxPoint as="offset" />
          </mxGeometry>
        </mxCell>
        <mxCell id="Te2GtE4PRlwuVwuaiyJ8-85" value="ERES OYENTE" style="rhombus;whiteSpace=wrap;html=1;" vertex="1" parent="WIyWlLk6GJQsqaUBKTNV-1">
          <mxGeometry x="280" y="415" width="80" height="80" as="geometry" />
        </mxCell>
        <mxCell id="Te2GtE4PRlwuVwuaiyJ8-93" value="" style="edgeStyle=orthogonalEdgeStyle;rounded=0;orthogonalLoop=1;jettySize=auto;html=1;" edge="1" parent="WIyWlLk6GJQsqaUBKTNV-1" source="Te2GtE4PRlwuVwuaiyJ8-87" target="Te2GtE4PRlwuVwuaiyJ8-92">
          <mxGeometry relative="1" as="geometry" />
        </mxCell>
        <mxCell id="Te2GtE4PRlwuVwuaiyJ8-87" value="COMUNICAR CON AGENTE" style="whiteSpace=wrap;html=1;" vertex="1" parent="WIyWlLk6GJQsqaUBKTNV-1">
          <mxGeometry x="445" y="476" width="120" height="60" as="geometry" />
        </mxCell>
        <mxCell id="Te2GtE4PRlwuVwuaiyJ8-97" style="edgeStyle=orthogonalEdgeStyle;rounded=0;orthogonalLoop=1;jettySize=auto;html=1;entryX=0;entryY=0.5;entryDx=0;entryDy=0;" edge="1" parent="WIyWlLk6GJQsqaUBKTNV-1" source="Te2GtE4PRlwuVwuaiyJ8-92" target="Te2GtE4PRlwuVwuaiyJ8-22">
          <mxGeometry relative="1" as="geometry" />
        </mxCell>
        <mxCell id="Te2GtE4PRlwuVwuaiyJ8-92" value="TERMINAR LLAMADA" style="whiteSpace=wrap;html=1;" vertex="1" parent="WIyWlLk6GJQsqaUBKTNV-1">
          <mxGeometry x="445" y="616" width="120" height="60" as="geometry" />
        </mxCell>
      </root>
    </mxGraphModel>
  </diagram>
</mxfile>
